<svg xmlns="http://www.w3.org/2000/svg" xmlns:xlink="http://www.w3.org/1999/xlink" version="1.1" width="787.38888pt" height="787.38888pt" viewBox="0 0 787.38888 787.38888">
<g enable-background="new">
<g id="Layer-1" data-name="Layer 1">
<clipPath id="cp0">
<path transform="matrix(2.7777777,0,0,-2.7777777,0,787.38888)" d="M 0 283.46 L 283.46 283.46 L 283.46 0 L 0 0 Z "/>
</clipPath>
<g clip-path="url(#cp0)">
<path transform="matrix(2.7777777,0,0,-2.7777777,-.008055555,688.9677)" d="M 0 0 C 0 -19.488 15.945 -35.434 35.434 -35.434 L 248.032 -35.434 C 267.521 -35.434 283.466 -19.488 283.466 0 L 283.466 212.598 C 283.466 232.086 267.521 248.03 248.032 248.03 L 35.434 248.03 C 15.945 248.03 0 232.086 0 212.598 Z " fill="#8c4799"/>
<path transform="matrix(2.7777777,0,0,-2.7777777,602.08999,251.96134)" d="M 0 0 L -16.25 -70.299 C -17.383 -76.345 -23.435 -81.263 -29.479 -81.263 L -120.188 -81.263 C -126.233 -81.263 -132.286 -76.345 -133.42 -70.299 L -150.045 0 C -151.179 6.044 -147.025 10.962 -140.974 10.962 L -8.695 10.962 C -2.643 10.962 1.51 6.044 0 0 M -29.479 -114.896 C -34.391 -114.896 -38.175 -111.119 -38.175 -106.208 C -38.175 -101.29 -34.391 -97.512 -29.479 -97.512 C -24.569 -97.512 -20.409 -101.29 -20.409 -106.208 C -20.409 -111.119 -24.569 -114.896 -29.479 -114.896 M -120.188 -116.03 C -125.1 -116.03 -128.884 -112.253 -128.884 -107.341 C -128.884 -102.424 -125.1 -98.646 -120.188 -98.646 C -115.277 -98.646 -111.118 -102.424 -111.118 -107.341 C -111.118 -112.253 -115.277 -116.03 -120.188 -116.03 M -128.884 42.328 L -21.167 42.328 L -21.167 36.283 C -21.167 31.748 -24.944 27.971 -29.479 27.971 L -120.188 27.971 C -124.724 27.971 -128.884 31.748 -128.884 36.283 Z M 17.384 26.078 C 10.964 39.685 6.045 50.265 .759 54.801 C -7.179 61.986 -40.818 69.923 -75.21 69.923 C -108.474 69.923 -142.866 61.986 -150.428 54.801 C -155.714 50.265 -161.008 39.685 -167.436 26.078 C -172.722 14.364 -176.882 3.401 -176.882 -3.026 L -176.882 -105.45 C -176.882 -113.762 -174.239 -117.164 -163.275 -125.858 C -154.963 -132.287 -151.562 -134.93 -139.089 -134.93 L -115.653 -134.93 L -115.653 -150.428 L -33.64 -150.428 L -33.64 -134.93 L -10.58 -134.93 C 1.894 -134.93 5.294 -132.287 13.231 -125.858 C 24.187 -116.788 26.837 -113.762 26.837 -105.45 L 26.837 -3.026 C 26.837 3.401 22.303 14.364 17.384 26.078 M 7.937 -161.009 C 11.714 -161.009 14.741 -164.034 14.741 -167.812 C 14.741 -171.589 11.714 -174.615 7.937 -174.615 L -157.605 -174.615 C -161.384 -174.615 -164.409 -171.589 -164.409 -167.812 C -164.409 -164.034 -161.384 -161.009 -157.605 -161.009 L -140.974 -161.009 L -140.974 -145.893 L -127.751 -145.893 L -127.751 -161.009 L -21.919 -161.009 L -21.919 -145.893 L -8.695 -145.893 L -8.695 -161.009 Z " fill="#ffffff"/>
</g>
</g>
</g>
</svg>
